<mxfile host="app.diagrams.net" agent="Mozilla/5.0 (Windows NT 10.0; Win64; x64) AppleWebKit/537.36 (KHTML, like Gecko) Chrome/130.0.0.0 Safari/537.36" version="24.8.4">
  <diagram name="PÃ¡gina-1" id="eeQssWjgylJZygvzeLIu">
    <mxGraphModel dx="1434" dy="738" grid="1" gridSize="10" guides="1" tooltips="1" connect="1" arrows="1" fold="1" page="1" pageScale="1" pageWidth="827" pageHeight="1169" math="0" shadow="0">
      <root>
        <mxCell id="0" />
        <mxCell id="1" parent="0" />
        <mxCell id="2" value="User" style="swimlane;fontStyle=1;align=center;verticalAlign=top;childLayout=stackLayout;horizontal=1;startSize=26;horizontalStack=0;resizeParent=1;resizeParentMax=0;resizeLast=0;collapsible=1;marginBottom=0;" vertex="1" parent="1">
          <mxGeometry x="320" y="40" width="160" height="136" as="geometry" />
        </mxCell>
        <mxCell id="_7wSkPh0zqSgKOES4VHM-14" value="+int Id&#xa;    +string Name&#xa;    +string Email&#xa;    +string Password&#xa;    +string UserName&#xa;    +UserRole Role" style="text;whiteSpace=wrap;html=1;" vertex="1" parent="2">
          <mxGeometry y="26" width="160" height="110" as="geometry" />
        </mxCell>
        <mxCell id="3" value="Client" style="swimlane;fontStyle=1;align=center;verticalAlign=top;childLayout=stackLayout;horizontal=1;startSize=26;horizontalStack=0;resizeParent=1;resizeParentMax=0;resizeLast=0;collapsible=1;marginBottom=0;" vertex="1" parent="1">
          <mxGeometry x="120" y="240" width="160" height="66" as="geometry" />
        </mxCell>
        <mxCell id="_7wSkPh0zqSgKOES4VHM-16" value="+ICollection Enrollments" style="text;whiteSpace=wrap;html=1;" vertex="1" parent="3">
          <mxGeometry y="26" width="160" height="40" as="geometry" />
        </mxCell>
        <mxCell id="4" value="Professor" style="swimlane;fontStyle=1;align=center;verticalAlign=top;childLayout=stackLayout;horizontal=1;startSize=26;horizontalStack=0;resizeParent=1;resizeParentMax=0;resizeLast=0;collapsible=1;marginBottom=0;" vertex="1" parent="1">
          <mxGeometry x="320" y="240" width="160" height="66" as="geometry" />
        </mxCell>
        <mxCell id="_7wSkPh0zqSgKOES4VHM-17" value="+ICollection Subjects" style="text;whiteSpace=wrap;html=1;" vertex="1" parent="4">
          <mxGeometry y="26" width="160" height="40" as="geometry" />
        </mxCell>
        <mxCell id="5" value="Admin" style="swimlane;fontStyle=1;align=center;verticalAlign=top;childLayout=stackLayout;horizontal=1;startSize=26;horizontalStack=0;resizeParent=1;resizeParentMax=0;resizeLast=0;collapsible=1;marginBottom=0;" vertex="1" parent="1">
          <mxGeometry x="520" y="240" width="160" height="80" as="geometry" />
        </mxCell>
        <mxCell id="6" value="Subject" style="swimlane;fontStyle=1;align=center;verticalAlign=top;childLayout=stackLayout;horizontal=1;startSize=26;horizontalStack=0;resizeParent=1;resizeParentMax=0;resizeLast=0;collapsible=1;marginBottom=0;" vertex="1" parent="1">
          <mxGeometry x="320" y="395" width="160" height="136" as="geometry" />
        </mxCell>
        <mxCell id="_7wSkPh0zqSgKOES4VHM-18" value="+int SubjectId&#xa;    +string Title&#xa;    +string Description&#xa;    +int ProfessorId&#xa;    +Professor Professor&#xa;    +ICollection Enrollments" style="text;whiteSpace=wrap;html=1;" vertex="1" parent="6">
          <mxGeometry y="26" width="160" height="110" as="geometry" />
        </mxCell>
        <mxCell id="7" value="Enrollment" style="swimlane;fontStyle=1;align=center;verticalAlign=top;childLayout=stackLayout;horizontal=1;startSize=26;horizontalStack=0;resizeParent=1;resizeParentMax=0;resizeLast=0;collapsible=1;marginBottom=0;" vertex="1" parent="1">
          <mxGeometry x="120" y="400" width="160" height="126" as="geometry" />
        </mxCell>
        <mxCell id="_7wSkPh0zqSgKOES4VHM-19" value="+int EnrollmentId&#xa;    +int SubjectId&#xa;    +Subject Subject&#xa;    +int ClientId&#xa;    +Client Client" style="text;whiteSpace=wrap;html=1;" vertex="1" parent="7">
          <mxGeometry y="26" width="160" height="100" as="geometry" />
        </mxCell>
        <mxCell id="8" value="" style="endArrow=block;endSize=16;endFill=0;html=1;rounded=0;exitX=0.5;exitY=0;exitDx=0;exitDy=0;entryX=0.25;entryY=1;entryDx=0;entryDy=0;" edge="1" parent="1" source="3" target="2">
          <mxGeometry width="160" relative="1" as="geometry" />
        </mxCell>
        <mxCell id="9" value="" style="endArrow=block;endSize=16;endFill=0;html=1;rounded=0;exitX=0.5;exitY=0;exitDx=0;exitDy=0;entryX=0.5;entryY=1;entryDx=0;entryDy=0;" edge="1" parent="1" source="4" target="2">
          <mxGeometry width="160" relative="1" as="geometry" />
        </mxCell>
        <mxCell id="10" value="" style="endArrow=block;endSize=16;endFill=0;html=1;rounded=0;exitX=0.5;exitY=0;exitDx=0;exitDy=0;entryX=0.75;entryY=1;entryDx=0;entryDy=0;" edge="1" parent="1" source="5" target="2">
          <mxGeometry width="160" relative="1" as="geometry" />
        </mxCell>
        <mxCell id="11" value="1" style="endArrow=open;html=1;endSize=12;startArrow=diamondThin;startSize=14;startFill=1;edgeStyle=orthogonalEdgeStyle;align=left;verticalAlign=bottom;rounded=0;" edge="1" parent="1" source="3" target="7">
          <mxGeometry x="-1" y="3" relative="1" as="geometry" />
        </mxCell>
        <mxCell id="12" value="1" style="endArrow=open;html=1;endSize=12;startArrow=diamondThin;startSize=14;startFill=1;edgeStyle=orthogonalEdgeStyle;align=left;verticalAlign=bottom;rounded=0;" edge="1" parent="1" source="4" target="6">
          <mxGeometry x="-1" y="3" relative="1" as="geometry" />
        </mxCell>
        <mxCell id="13" value="1" style="endArrow=open;html=1;endSize=12;startArrow=diamondThin;startSize=14;startFill=1;edgeStyle=orthogonalEdgeStyle;align=left;verticalAlign=bottom;rounded=0;" edge="1" parent="1" source="6" target="7">
          <mxGeometry x="-1" y="3" relative="1" as="geometry" />
        </mxCell>
      </root>
    </mxGraphModel>
  </diagram>
</mxfile>
